<svg xmlns="http://www.w3.org/2000/svg" version="1.1" xmlns:xlink="http://www.w3.org/1999/xlink" xmlns:svgjs="http://svgjs.com/svgjs" width="512" height="512" x="0" y="0" viewBox="0 0 64 64" style="enable-background:new 0 0 512 512" xml:space="preserve" class=""><g><g xmlns="http://www.w3.org/2000/svg" id="Icons"><g><g><path d="m32 58c-14.359 0-26-11.641-26-26 0-14.359 11.641-26 26-26 14.359 0 26 11.641 26 26 0 14.359-11.641 26-26 26z" fill="#fa6450" data-original="#fa6450" class=""></path></g><g><path d="m10 32c0-13.686 10.576-24.894 24-25.916-.661-.05-1.326-.084-2-.084-14.359 0-26 11.641-26 26 0 14.359 11.641 26 26 26 .674 0 1.339-.034 2-.084-13.424-1.022-24-12.23-24-25.916z" fill="#dc4632" data-original="#dc4632"></path></g><g><g><path d="m16.444 27.757h31.113v8.485h-31.113z" fill="#f0f0f0" transform="matrix(.707 -.707 .707 .707 -13.255 32)" data-original="#f0f0f0" class=""></path></g><g><path d="m27.757 16.444h8.485v31.113h-8.485z" fill="#f0f0f0" transform="matrix(.707 -.707 .707 .707 -13.255 32)" data-original="#f0f0f0" class=""></path></g></g></g></g></g></svg>