<svg xmlns="http://www.w3.org/2000/svg" version="1.1" xmlns:xlink="http://www.w3.org/1999/xlink" xmlns:svgjs="http://svgjs.com/svgjs" width="512" height="512" x="0" y="0" viewBox="0 0 128 128" style="enable-background:new 0 0 512 512" xml:space="preserve" class=""><g><g xmlns="http://www.w3.org/2000/svg"><path d="m116.689 4.557h-105.379a6.761 6.761 0 0 0 -6.753 6.753v105.38a6.761 6.761 0 0 0 6.753 6.753h105.379a6.762 6.762 0 0 0 6.754-6.753v-105.38a6.762 6.762 0 0 0 -6.754-6.753zm-108.632 27.693h111.886v63.5h-111.886zm3.253-24.193h105.379a3.258 3.258 0 0 1 3.254 3.253v17.44h-111.886v-17.44a3.258 3.258 0 0 1 3.253-3.253zm105.379 111.886h-105.379a3.258 3.258 0 0 1 -3.253-3.253v-17.44h111.886v17.44a3.258 3.258 0 0 1 -3.254 3.253z" fill="#000000" data-original="#000000" class=""></path><path d="m58.982 25.172h10.036a1.75 1.75 0 0 0 1.75-1.75v-10.036a1.75 1.75 0 0 0 -1.75-1.75h-10.036a1.75 1.75 0 0 0 -1.75 1.75v10.036a1.75 1.75 0 0 0 1.75 1.75zm1.75-10.036h6.536v6.536h-6.536z" fill="#000000" data-original="#000000" class=""></path><path d="m79.886 25.172h10.036a1.749 1.749 0 0 0 1.75-1.75v-10.036a1.749 1.749 0 0 0 -1.75-1.75h-10.036a1.749 1.749 0 0 0 -1.75 1.75v10.036a1.749 1.749 0 0 0 1.75 1.75zm1.75-10.036h6.536v6.536h-6.536z" fill="#000000" data-original="#000000" class=""></path><path d="m17.175 25.172h10.035a1.749 1.749 0 0 0 1.75-1.75v-10.036a1.749 1.749 0 0 0 -1.75-1.75h-10.035a1.749 1.749 0 0 0 -1.75 1.75v10.036a1.749 1.749 0 0 0 1.75 1.75zm1.75-10.036h6.535v6.536h-6.535z" fill="#000000" data-original="#000000" class=""></path><path d="m38.079 25.172h10.035a1.749 1.749 0 0 0 1.75-1.75v-10.036a1.749 1.749 0 0 0 -1.75-1.75h-10.035a1.749 1.749 0 0 0 -1.75 1.75v10.036a1.749 1.749 0 0 0 1.75 1.75zm1.75-10.036h6.535v6.536h-6.535z" fill="#000000" data-original="#000000" class=""></path><path d="m100.789 25.172h10.036a1.749 1.749 0 0 0 1.75-1.75v-10.036a1.749 1.749 0 0 0 -1.75-1.75h-10.036a1.749 1.749 0 0 0 -1.75 1.75v10.036a1.749 1.749 0 0 0 1.75 1.75zm1.75-10.036h6.536v6.536h-6.536z" fill="#000000" data-original="#000000" class=""></path><path d="m69.018 102.828h-10.036a1.75 1.75 0 0 0 -1.75 1.75v10.036a1.75 1.75 0 0 0 1.75 1.75h10.036a1.75 1.75 0 0 0 1.75-1.75v-10.036a1.75 1.75 0 0 0 -1.75-1.75zm-1.75 10.036h-6.536v-6.536h6.536z" fill="#000000" data-original="#000000" class=""></path><path d="m48.114 102.828h-10.035a1.749 1.749 0 0 0 -1.75 1.75v10.036a1.749 1.749 0 0 0 1.75 1.75h10.035a1.749 1.749 0 0 0 1.75-1.75v-10.036a1.749 1.749 0 0 0 -1.75-1.75zm-1.75 10.036h-6.535v-6.536h6.535z" fill="#000000" data-original="#000000" class=""></path><path d="m110.825 102.828h-10.036a1.749 1.749 0 0 0 -1.75 1.75v10.036a1.749 1.749 0 0 0 1.75 1.75h10.036a1.749 1.749 0 0 0 1.75-1.75v-10.036a1.749 1.749 0 0 0 -1.75-1.75zm-1.75 10.036h-6.536v-6.536h6.536z" fill="#000000" data-original="#000000" class=""></path><path d="m89.922 102.828h-10.036a1.749 1.749 0 0 0 -1.75 1.75v10.036a1.749 1.749 0 0 0 1.75 1.75h10.036a1.749 1.749 0 0 0 1.75-1.75v-10.036a1.749 1.749 0 0 0 -1.75-1.75zm-1.75 10.036h-6.536v-6.536h6.536z" fill="#000000" data-original="#000000" class=""></path><path d="m27.21 102.828h-10.035a1.749 1.749 0 0 0 -1.75 1.75v10.036a1.749 1.749 0 0 0 1.75 1.75h10.035a1.749 1.749 0 0 0 1.75-1.75v-10.036a1.749 1.749 0 0 0 -1.75-1.75zm-1.75 10.036h-6.535v-6.536h6.535z" fill="#000000" data-original="#000000" class=""></path><path d="m85.342 62.491-32.734-19.226a1.75 1.75 0 0 0 -2.636 1.508v38.454a1.748 1.748 0 0 0 2.636 1.508l32.734-19.226a1.751 1.751 0 0 0 0-3.018zm-31.87 17.678v-32.338l27.528 16.169z" fill="#000000" data-original="#000000" class=""></path></g></g></svg>