<svg xmlns="http://www.w3.org/2000/svg" version="1.1" xmlns:xlink="http://www.w3.org/1999/xlink" xmlns:svgjs="http://svgjs.com/svgjs" width="512" height="512" x="0" y="0" viewBox="0 0 512 512" style="enable-background:new 0 0 512 512" xml:space="preserve" class=""><g><g xmlns="http://www.w3.org/2000/svg"><g><path d="m437 451h-362c-41.367 0-75-33.647-75-75v-240c0-41.353 33.633-75 75-75h362c41.367 0 75 33.647 75 75v240c0 41.353-33.633 75-75 75z" fill="#fb0808" data-original="#474f54" class=""></path></g><path d="m437 61h-181v390h181c41.367 0 75-33.647 75-75v-240c0-41.353-33.633-75-75-75z" fill="#fb0808" data-original="#32393f" class=""></path><g><path d="m181 358.07 163.301-102.07-163.301-102.07z" fill="#f0f7ff" data-original="#f0f7ff" class=""></path><path d="m256 311.192 88.301-55.192-88.301-55.192z" fill="#c7cfe1" data-original="#c7cfe1" class=""></path></g></g></g></svg>